<?xml version="1.0" standalone="no"?><!DOCTYPE svg PUBLIC "-//W3C//DTD SVG 1.1//EN" "http://www.w3.org/Graphics/SVG/1.1/DTD/svg11.dtd"><svg t="1698645323016" class="icon" viewBox="0 0 1024 1024" version="1.1" xmlns="http://www.w3.org/2000/svg" p-id="24596" xmlns:xlink="http://www.w3.org/1999/xlink" width="200" height="200"><path d="M515.730351 0.011041C232.336875-1.783171-1.416737 230.406257 0.193453 512.281553c0 281.047199 229.521112 511.534425 509.694208 511.718447 282.7494 0.184022 513.788691-229.659128 513.926708-511.304398C1023.952384 231.924436 794.339261 1.805253 515.730351 0.011041zM307.923803 923.616142c-32.065788-13.479592-60.497146-33.077907-87.042282-55.068505-102.316086-85.294075-158.948776-194.602987-168.517906-327.466682C47.349023 471.290711 58.620355 403.616717 85.303506 338.79506c1.380163-3.312391 1.518179-9.155081 6.256739-8.879049 3.542418 0.322038 3.818451 5.658668 4.922581 8.879049 69.238179 189.496384 138.430352 378.946763 207.530515 568.535158 1.840217 4.876576 3.22038 10.259212 4.784565 15.365815l0.046005 0.874103L307.923803 923.616142zM652.964561 950.023261c-85.75413 27.051195-172.060325 29.12144-259.240623 6.808804C382.038558 953.979729 383.2347 948.32106 386.179047 939.902066c31.421712-90.768722 62.521385-181.215406 93.759075-271.984128 11.363342-32.985896 22.588668-65.971793 33.998016-98.727662 1.380163-3.956467 1.840217-8.557011 7.130842-13.019538 4.876576 13.295571 9.523125 25.256983 13.893641 37.356413 41.634918 114.047472 83.177825 228.048938 124.996765 342.050405C663.085757 943.858533 661.613583 947.354946 652.964561 950.023261zM742.169099 784.955763c-4.876576-3.312391-5.24462-7.636902-6.440761-11.225326-51.848125-153.842173-103.604238-307.684345-155.360352-461.526518-5.198614-15.457826-5.152609-15.365815 11.501359-16.976005 11.777391-1.01212 23.600788-2.070245 35.332174-3.772446 11.961413-1.794212 18.402174-9.983179 17.344049-20.65644-0.966114-10.443234-8.142962-16.653967-20.196386-16.239918-28.661386 1.150136-57.322771 3.358397-86.076168 4.462527C487.897063 260.769843 437.705134 257.687479 387.513205 254.651121 384.982906 254.467099 382.452607 254.283077 379.968314 254.421093 369.065026 255.019164 362.302227 261.137887 361.244102 271.48911 360.231982 281.196256 366.442716 289.615251 377.023966 291.225441c13.065543 1.886223 26.315108 3.266386 39.564674 4.2325 6.578777 0.50606 10.58125 2.484293 12.927527 8.833043 22.036603 60.773179 44.165217 121.546358 66.431847 182.273531 1.886223 5.106603 0.966114 9.799158-0.736087 14.629728-31.053668 92.976983-62.061331 185.999971-93.068994 279.068965-0.966114 2.898342-1.518179 6.34875-4.692554 8.326984C393.263884 786.519948 393.171873 782.103426 391.975732 778.607013c-52.354184-155.544374-104.616358-311.180758-156.878531-466.771137C229.990598 296.608077 230.082609 296.608077 245.862473 295.181908c11.08731-0.966114 22.220625-1.886223 33.261929-3.404402 13.663614-1.794212 21.1625-9.799158 20.196386-20.426413C298.308668 259.89574 290.441738 254.007045 276.134048 254.467099 239.145679 255.801257 202.387337 259.803729 165.306957 259.29767c-8.649022-0.138016-17.252038 0-25.855054-0.230027C136.415544 258.975631 132.32106 260.4018 130.802881 256.629354c-1.10413-2.898342 1.61019-5.290625 3.22038-7.636902C152.9775 221.757235 174.370027 196.638268 198.844919 174.233621 272.08557 107.111693 357.885705 66.074845 456.613367 54.987535c133.92182-14.905761 253.075895 21.484538 356.266084 108.710841 2.070245 1.748207 4.968587 3.036359 4.968587 6.486766-1.380163 2.346277-3.772446 1.978234-5.84269 2.254266-49.685869 6.624783-80.601521 49.593858-71.078396 99.0497 4.462527 23.416766 15.457826 43.93519 27.603261 64.039565 10.535244 17.528071 21.622554 34.780108 30.547608 53.182282 24.796929 51.342065 30.179565 104.754374 14.445706 159.500841-22.036603 76.921086-45.54538 153.56614-68.456086 230.303205C744.561381 780.493236 743.36524 782.287448 742.169099 784.955763zM746.033555 905.582012c-0.690082-5.750679 2.11625-10.535244 3.818451-15.457826 48.16769-138.844401 96.519401-277.458775 144.59508-416.303176 19.138261-55.298532 28.753396-111.977227 22.358641-170.634156-0.184022-1.656196-0.644076-3.496413 2.438288-6.026712 58.472907 116.255733 69.008152 235.869862 29.535489 359.394453C915.885619 758.364622 807.818854 890.538235 746.033555 905.582012z" p-id="24597" fill="#2c2c2c"></path></svg>